<?xml version="1.0" encoding="UTF-8"?><svg id="Layer_1" xmlns="http://www.w3.org/2000/svg" viewBox="0 0 132.06 148.26"><defs><style>.cls-1{fill:none;stroke:#000;stroke-miterlimit:10;stroke-width:3px;}</style></defs><g><line class="cls-1" x1="48.89" y1="56.36" x2="131.52" y2="24.8"/><line class="cls-1" x1="48.64" y1="49.02" x2="123.09" y2="1.26"/><path class="cls-1" d="M28.01,113.04c-.12-9.13,.08-14.45,.6-23.57,.42-7.44,.68-16.09,5.69-22.1,2.36-2.83,6.05-5.32,9.53-4.11,2.97,1.03,4.47,4.29,5.46,7.28,1.48,4.44,2.87,8.92,3.68,13.54,.63,3.6,1.74,9.16,.08,12.63-.33,.69-.96,1.29-1.73,1.37-.6,.06-1.18-.2-1.68-.52-4.68-2.94-4.55-10.04-3.77-14.82,.88-5.42,3.46-10.9,7.62-14.57,2.09-1.85,4.65-3.58,7.4-3.12,7.28,1.22,9.54,19.41,2.95,17.4-1.48-.45-2.5-1.81-3.16-3.21-2.27-4.8-1.5-10.34-1.66-15.46-.18-5.56,.27-11.13,1.38-16.58,1.36-6.69,2.52-17.43,9.67-19.78,8.77-2.89,6.99,12.49,7.47,17.04,.21,1.98,.4,4.04-.33,5.89-.74,1.84-2.73,3.35-4.65,2.83-1.2-.32-2.08-1.34-2.72-2.4-.72-1.21-1.22-2.59-1.12-3.99,.1-1.4,.89-2.8,2.17-3.37,1.41-.62,3.16-.09,4.23,1.02,2.79,2.89,2.85,8.85,2.96,12.6,.28,9.08-.08,18.16,.15,27.24,.24,9.58,.58,19.17,.66,28.76"/></g><g><path d="M31.24,143.59h43.9v1.78c0,1.59-1.29,2.89-2.89,2.89H34.13c-1.59,0-2.89-1.29-2.89-2.89v-1.78h0Z"/><path d="M.94,107.42H105.44c.52,0,.94,.42,.94,.94v12.95c0,11.07-8.99,20.06-20.06,20.06H20.06C8.99,141.37,0,132.38,0,121.31v-12.95C0,107.84,.42,107.42,.94,107.42Z"/></g></svg>